<?xml version="1.0" standalone="no"?>
<!DOCTYPE svg PUBLIC "-//W3C//DTD SVG 20010904//EN"
 "http://www.w3.org/TR/2001/REC-SVG-20010904/DTD/svg10.dtd">
<svg version="1.0" xmlns="http://www.w3.org/2000/svg"
 width="2373.000000pt" height="1491.000000pt" viewBox="0 0 2373.000000 1491.000000"
 preserveAspectRatio="xMidYMid meet">

<g transform="translate(0.000000,1491.000000) scale(0.100000,-0.100000)"
fill="#000000" stroke="none">
<path d="M0 14255 c0 -617 1 -655 18 -655 9 0 80 7 157 15 176 18 332 19 365
2 21 -11 25 -20 24 -58 0 -26 -9 -63 -22 -87 -43 -83 -92 -224 -92 -266 0 -53
35 -106 87 -132 31 -16 60 -19 163 -19 86 0 136 5 160 14 36 15 80 54 80 72 0
5 5 9 10 9 13 0 13 107 0 115 -5 3 -10 13 -10 22 0 8 -25 68 -55 132 -88 186
-76 211 102 211 91 0 413 -28 422 -36 3 -2 -1 -44 -7 -92 -6 -48 -17 -159 -24
-248 -11 -149 -10 -165 6 -208 19 -50 62 -86 101 -86 12 1 4 7 -18 15 -73 25
-92 81 -82 235 8 125 41 395 50 410 4 7 3351 10 10453 10 l10448 0 -13 -92
c-16 -120 -28 -377 -19 -412 19 -75 83 -85 196 -30 220 106 300 111 351 20 20
-34 24 -59 27 -146 5 -129 -8 -182 -54 -228 -34 -34 -36 -35 -97 -30 -48 4
-94 19 -190 62 -70 31 -138 56 -152 56 -13 0 -37 -11 -52 -24 l-28 -24 1 -159
c1 -132 25 -391 39 -413 2 -3 68 2 147 11 293 36 404 34 450 -8 31 -28 22 -85
-27 -190 -59 -125 -75 -174 -75 -229 0 -94 94 -141 265 -132 138 8 205 54 205
141 0 40 -23 109 -79 233 -45 100 -50 141 -23 173 35 41 93 47 303 27 105 -9
197 -20 205 -23 12 -4 14 45 14 311 0 174 -3 316 -6 316 -3 0 -43 -17 -88 -39
-44 -21 -99 -44 -121 -51 -22 -7 -48 -16 -57 -21 -38 -19 -91 -7 -128 30 -33
33 -42 75 -41 187 1 167 30 218 122 217 28 0 63 -6 78 -13 14 -7 35 -16 46
-20 11 -4 53 -24 94 -44 41 -20 80 -36 88 -36 11 0 13 158 13 930 l0 930
-11865 0 -11865 0 0 -655z"/>
<path d="M1 13183 c0 -98 4 -150 9 -138 12 29 12 282 0 290 -7 4 -10 -49 -9
-152z"/>
<path d="M1750 13076 c-36 -12 -90 -35 -120 -51 -30 -15 -70 -34 -90 -41 -28
-11 -29 -13 -7 -9 15 3 70 26 122 51 180 86 258 83 286 -13 20 -70 18 -227 -4
-285 -16 -41 -24 -49 -56 -59 -51 -15 -116 -1 -223 50 -46 21 -94 42 -108 45
-14 4 9 -10 50 -29 273 -132 351 -111 367 101 8 104 -12 202 -50 236 -37 35
-78 36 -167 4z"/>
<path d="M1428 12763 c-43 -27 -53 -65 -52 -188 2 -144 29 -413 41 -402 2 3
-2 63 -11 134 -44 370 -31 446 77 464 41 6 41 7 7 7 -19 1 -47 -6 -62 -15z"/>
<path d="M2 12560 c0 -106 3 -151 8 -125 11 56 11 246 0 270 -5 13 -8 -42 -8
-145z"/>
<path d="M603 12683 c9 -2 23 -2 30 0 6 3 -1 5 -18 5 -16 0 -22 -2 -12 -5z"/>
<path d="M783 12683 c9 -2 23 -2 30 0 6 3 -1 5 -18 5 -16 0 -22 -2 -12 -5z"/>
<path d="M535 12671 c-11 -5 -29 -19 -40 -32 l-20 -24 25 21 c14 12 39 26 55
32 17 6 23 10 15 11 -8 0 -24 -4 -35 -8z"/>
<path d="M875 12658 c11 -6 27 -16 35 -22 9 -6 5 -1 -8 12 -13 12 -28 22 -35
22 -7 0 -3 -6 8 -12z"/>
<path d="M951 12533 c0 -12 -4 -30 -7 -40 -5 -17 -5 -17 6 0 6 10 9 28 7 40
-4 22 -4 22 -6 0z"/>
<path d="M931 12463 c-1 -6 -4 -20 -7 -30 -5 -17 -5 -17 6 0 6 10 9 23 6 30
-3 9 -5 9 -5 0z"/>
<path d="M490 12395 c0 -5 5 -17 10 -25 5 -8 10 -10 10 -5 0 6 -5 17 -10 25
-5 8 -10 11 -10 5z"/>
<path d="M892 12365 c-17 -37 -14 -45 4 -12 9 16 14 31 11 33 -2 2 -9 -7 -15
-21z"/>
<path d="M511 12348 c-1 -3 12 -35 29 -70 34 -71 38 -113 13 -140 -9 -10 -11
-18 -5 -18 16 0 32 34 32 67 0 24 -67 180 -69 161z"/>
<path d="M826 12218 c-8 -32 -7 -66 2 -71 4 -3 7 17 8 44 1 55 -1 59 -10 27z"/>
<path d="M1410 12150 c0 -5 5 -10 10 -10 6 0 10 5 10 10 0 6 -4 10 -10 10 -5
0 -10 -4 -10 -10z"/>
<path d="M40 12139 c0 -5 9 -9 20 -9 11 0 20 2 20 4 0 2 -9 6 -20 9 -11 3 -20
1 -20 -4z"/>
<path d="M1313 12133 c9 -2 25 -2 35 0 9 3 1 5 -18 5 -19 0 -27 -2 -17 -5z"/>
<path d="M153 12123 c9 -2 25 -2 35 0 9 3 1 5 -18 5 -19 0 -27 -2 -17 -5z"/>
<path d="M857 12120 c8 -9 43 -14 100 -16 l88 -2 -80 7 c-44 5 -89 12 -100 16
-16 6 -18 5 -8 -5z"/>
<path d="M1213 12123 c9 -2 25 -2 35 0 9 3 1 5 -18 5 -19 0 -27 -2 -17 -5z"/>
<path d="M258 12113 c18 -2 45 -2 60 0 15 2 0 4 -33 4 -33 0 -45 -2 -27 -4z"/>
<path d="M1093 12113 c15 -2 39 -2 55 0 15 2 2 4 -28 4 -30 0 -43 -2 -27 -4z"/>
<path d="M388 12103 c23 -2 59 -2 80 0 20 2 1 4 -43 4 -44 0 -61 -2 -37 -4z"/>
<path d="M2460 11480 l0 -260 40 0 40 0 2 188 3 187 78 -112 c43 -62 82 -115
87 -118 5 -3 46 47 92 112 l83 118 3 -187 2 -188 40 0 40 0 0 260 0 260 -37 0
c-37 0 -39 -2 -126 -130 -49 -72 -90 -130 -91 -130 -2 0 -43 58 -92 130 -87
128 -90 130 -126 130 l-38 0 0 -260z"/>
<path d="M3660 11480 l0 -260 40 0 40 0 2 186 3 187 140 -187 c131 -174 142
-186 173 -186 l32 0 0 260 0 260 -40 0 -40 0 -2 -187 -3 -187 -140 187 c-131
176 -142 187 -172 187 l-33 0 0 -260z"/>
<path d="M3115 11411 l84 -181 -34 -80 -34 -80 37 0 37 0 112 261 111 260 -40
-3 -40 -3 -53 -128 c-30 -71 -55 -131 -58 -133 -2 -2 -31 55 -64 128 l-60 133
-41 3 -41 3 84 -180z"/>
<path d="M4293 11579 c-64 -19 -123 -106 -123 -179 0 -12 5 -40 11 -61 33
-107 184 -154 269 -83 l30 26 0 -31 c0 -29 3 -31 35 -31 l35 0 0 185 0 185
-35 0 c-31 0 -35 -3 -35 -25 l0 -24 -33 19 c-41 24 -110 33 -154 19z m153 -93
c29 -29 34 -41 34 -81 0 -40 -5 -52 -34 -81 -30 -30 -40 -34 -84 -34 -43 0
-55 5 -80 30 -79 79 -30 200 82 200 41 0 53 -5 82 -34z"/>
<path d="M4660 11405 l0 -185 35 0 35 0 0 94 c0 51 3 107 6 125 15 74 99 107
149 56 24 -23 25 -30 25 -150 l0 -125 35 0 35 0 0 98 c0 113 12 165 43 187 33
23 84 19 112 -10 24 -23 25 -30 25 -150 l0 -125 35 0 35 0 0 139 c0 127 -2
141 -23 172 -42 63 -154 75 -216 24 -28 -24 -29 -24 -46 -5 -40 45 -128 49
-178 10 -33 -26 -37 -25 -37 5 0 22 -4 25 -35 25 l-35 0 0 -185z"/>
<path d="M5433 11579 c-44 -13 -100 -70 -112 -116 -16 -57 -13 -92 10 -141 53
-108 209 -134 305 -50 39 35 40 49 1 59 -19 5 -30 2 -43 -12 -54 -60 -178 -41
-203 32 l-10 29 150 0 149 0 0 35 c0 122 -119 201 -247 164z m111 -63 c34 -14
66 -50 66 -73 0 -10 -28 -13 -114 -13 -107 0 -114 1 -109 19 6 24 52 68 78 74
35 8 45 7 79 -7z"/>
<path d="M5748 11555 c-9 -21 -8 -28 7 -45 23 -25 47 -26 68 -2 32 35 14 72
-35 72 -21 0 -32 -7 -40 -25z"/>
<path d="M5762 11304 c-27 -18 -28 -45 -4 -67 24 -22 45 -21 65 1 22 24 21 38
-3 62 -24 24 -29 24 -58 4z"/>
<path d="M22347 10713 c-3 -4 -7 -48 -10 -98 l-6 -90 13 95 c13 93 13 110 3
93z"/>
<path d="M303 10683 c15 -2 39 -2 55 0 15 2 2 4 -28 4 -30 0 -43 -2 -27 -4z"/>
<path d="M507 10680 c46 -11 61 -26 66 -68 l4 -37 1 37 c2 29 -4 41 -24 57
-15 12 -38 21 -53 20 -24 -1 -23 -2 6 -9z"/>
<path d="M893 10683 c9 -2 25 -2 35 0 9 3 1 5 -18 5 -19 0 -27 -2 -17 -5z"/>
<path d="M1028 10683 c23 -2 59 -2 80 0 20 2 1 4 -43 4 -44 0 -61 -2 -37 -4z"/>
<path d="M193 10673 c15 -2 37 -2 50 0 12 2 0 4 -28 4 -27 0 -38 -2 -22 -4z"/>
<path d="M836 10661 c-11 -12 -16 -30 -13 -48 4 -28 4 -28 6 4 0 20 9 37 23
47 12 9 18 16 12 16 -6 0 -19 -9 -28 -19z"/>
<path d="M1188 10673 c12 -2 30 -2 40 0 9 3 -1 5 -23 4 -22 0 -30 -2 -17 -4z"/>
<path d="M103 10663 c9 -2 23 -2 30 0 6 3 -1 5 -18 5 -16 0 -22 -2 -12 -5z"/>
<path d="M1273 10663 c9 -2 23 -2 30 0 6 3 -1 5 -18 5 -16 0 -22 -2 -12 -5z"/>
<path d="M1370 10656 c0 -2 7 -7 16 -10 8 -3 12 -2 9 4 -6 10 -25 14 -25 6z"/>
<path d="M1402 10553 c-22 -194 -34 -383 -28 -428 5 -27 17 -56 32 -73 l25
-27 -23 33 c-21 32 -23 43 -21 160 1 109 23 337 38 410 3 12 1 22 -3 22 -5 0
-14 -44 -20 -97z"/>
<path d="M831 10570 c0 -8 4 -22 9 -30 12 -18 12 -2 0 25 -6 13 -9 15 -9 5z"/>
<path d="M877 10465 c15 -30 29 -53 31 -51 4 5 -46 106 -53 106 -3 0 7 -25 22
-55z"/>
<path d="M22323 10480 c0 -25 2 -35 4 -22 2 12 2 32 0 45 -2 12 -4 2 -4 -23z"/>
<path d="M509 10454 c-5 -15 -8 -29 -5 -31 2 -2 8 10 14 26 13 38 5 41 -9 5z"/>
<path d="M22316 10422 c-3 -5 -8 -56 -12 -113 -7 -116 7 -181 39 -187 17 -4
17 -2 -2 17 -29 29 -35 80 -24 190 10 97 10 110 -1 93z"/>
<path d="M486 10395 c-9 -26 -7 -32 5 -12 6 10 9 21 6 23 -2 3 -7 -2 -11 -11z"/>
<path d="M2 10235 c-1 -113 2 -165 8 -155 11 17 12 190 0 270 -5 40 -8 9 -8
-115z"/>
<path d="M911 10395 c1 -19 18 -51 18 -35 0 8 -4 22 -9 30 -5 8 -9 11 -9 5z"/>
<path d="M465 10339 c-4 -6 -5 -12 -2 -15 2 -3 7 2 10 11 7 17 1 20 -8 4z"/>
<path d="M950 10258 c-3 -26 -1 -43 3 -39 5 5 7 26 5 47 l-3 39 -5 -47z"/>
<path d="M453 10250 c0 -25 2 -35 4 -22 2 12 2 32 0 45 -2 12 -4 2 -4 -23z"/>
<path d="M22685 10240 c-11 -5 -51 -21 -90 -36 -69 -26 -99 -43 -92 -51 2 -2
37 12 78 32 41 19 100 41 131 47 90 19 136 -12 170 -112 7 -21 7 -20 3 8 -6
43 -38 88 -75 107 -32 16 -94 19 -125 5z"/>
<path d="M912 10169 c-13 -16 -44 -35 -70 -44 -38 -12 -40 -14 -12 -10 37 6
96 42 105 64 9 23 1 20 -23 -10z"/>
<path d="M490 10155 c0 -7 61 -37 66 -33 2 3 -12 12 -31 21 -19 9 -35 15 -35
12z"/>
<path d="M1775 10136 c-47 -16 -221 -100 -186 -90 14 4 60 24 103 44 87 42
159 57 201 41 37 -14 55 -60 67 -169 l9 -87 -4 86 c-8 170 -59 217 -190 175z"/>
<path d="M22455 10140 c-11 -5 -32 -9 -47 -9 -15 -1 -30 -5 -33 -11 -4 -6 6
-7 27 -3 35 6 100 31 83 31 -5 1 -19 -3 -30 -8z"/>
<path d="M578 10113 c7 -3 16 -2 19 1 4 3 -2 6 -13 5 -11 0 -14 -3 -6 -6z"/>
<path d="M663 10103 c20 -2 54 -2 75 0 20 2 3 4 -38 4 -41 0 -58 -2 -37 -4z"/>
<path d="M22892 10004 c-3 -119 -22 -183 -67 -223 -43 -37 -89 -41 -167 -11
-61 23 -79 18 -22 -6 46 -20 113 -29 147 -20 39 9 86 66 103 122 10 34 14 82
11 140 l-3 89 -2 -91z"/>
<path d="M1510 10029 c-19 -4 -44 -6 -55 -3 -16 4 -17 3 -5 -5 20 -14 49 -13
85 4 34 15 26 17 -25 4z"/>
<path d="M1950 9844 c0 -15 -5 -45 -12 -67 -9 -31 -20 -43 -47 -54 -38 -16
-75 -12 -160 18 -74 25 -77 16 -4 -11 119 -44 184 -35 214 30 20 42 31 110 18
110 -5 0 -9 -12 -9 -26z"/>
<path d="M22324 9843 c-15 -22 -19 -47 -19 -123 0 -52 3 -120 7 -150 4 -30 12
-110 19 -177 7 -68 15 -123 19 -123 3 0 0 48 -6 108 -40 356 -38 444 10 478
16 11 17 14 4 14 -8 0 -24 -12 -34 -27z"/>
<path d="M22395 9863 c11 -2 57 -20 103 -40 46 -19 85 -33 87 -31 8 7 -164 78
-187 77 -20 -1 -20 -2 -3 -6z"/>
<path d="M1420 9803 l-25 -28 26 23 c36 31 90 29 168 -8 35 -17 66 -29 68 -26
10 10 -117 60 -162 64 -45 3 -52 1 -75 -25z"/>
<path d="M1384 9758 c-4 -6 -9 -48 -10 -92 l-3 -81 8 81 c5 45 11 86 15 93 4
6 5 11 2 11 -3 0 -8 -5 -12 -12z"/>
<path d="M1 9600 c0 -91 4 -156 8 -145 12 30 13 278 1 295 -7 10 -10 -36 -9
-150z"/>
<path d="M1380 9570 c-7 -44 27 -348 41 -370 8 -11 9 -9 5 10 -10 52 -27 189
-35 280 -5 52 -9 88 -11 80z"/>
<path d="M22723 9313 c32 -2 81 -2 110 0 29 2 3 3 -58 3 -60 0 -84 -1 -52 -3z"/>
<path d="M23278 9313 c6 -2 18 -2 25 0 6 3 1 5 -13 5 -14 0 -19 -2 -12 -5z"/>
<path d="M23388 9313 c18 -2 45 -2 60 0 15 2 0 4 -33 4 -33 0 -45 -2 -27 -4z"/>
<path d="M22583 9303 c9 -2 25 -2 35 0 9 3 1 5 -18 5 -19 0 -27 -2 -17 -5z"/>
<path d="M23528 9303 c7 -3 16 -2 19 1 4 3 -2 6 -13 5 -11 0 -14 -3 -6 -6z"/>
<path d="M22468 9283 c7 -3 16 -2 19 1 4 3 -2 6 -13 5 -11 0 -14 -3 -6 -6z"/>
<path d="M23195 9280 c-3 -6 1 -7 9 -4 18 7 21 14 7 14 -6 0 -13 -4 -16 -10z"/>
<path d="M23668 9283 c6 -2 18 -2 25 0 6 3 1 5 -13 5 -14 0 -19 -2 -12 -5z"/>
<path d="M22378 9273 c6 -2 18 -2 25 0 6 3 1 5 -13 5 -14 0 -19 -2 -12 -5z"/>
<path d="M22976 9230 c8 -43 14 -51 14 -19 0 13 -5 31 -10 39 -7 11 -8 5 -4
-20z"/>
<path d="M23167 9233 c-4 -3 -7 -16 -6 -27 0 -19 1 -19 10 3 10 24 8 36 -4 24z"/>
<path d="M22971 9173 c-1 -6 -4 -20 -7 -30 -5 -17 -5 -17 6 0 6 10 9 23 6 30
-3 9 -5 9 -5 0z"/>
<path d="M23170 9175 c0 -5 5 -17 10 -25 5 -8 10 -10 10 -5 0 6 -5 17 -10 25
-5 8 -10 11 -10 5z"/>
<path d="M23206 9091 c10 -39 35 -94 40 -89 2 3 -7 29 -21 59 -14 30 -22 43
-19 30z"/>
<path d="M22916 9046 c-14 -30 -26 -58 -26 -63 1 -4 14 19 30 52 16 32 27 61
26 63 -2 2 -16 -21 -30 -52z"/>
<path d="M22876 8955 c-9 -26 -7 -32 5 -12 6 10 9 21 6 23 -2 3 -7 -2 -11 -11z"/>
<path d="M23282 8895 c0 -16 2 -22 5 -12 2 9 2 23 0 30 -3 6 -5 -1 -5 -18z"/>
<path d="M23291 8844 c0 -11 3 -14 6 -6 3 7 2 16 -1 19 -3 4 -6 -2 -5 -13z"/>
<path d="M22870 8782 c0 -4 10 -13 23 -21 22 -14 22 -14 3 8 -20 22 -26 25
-26 13z"/>
<path d="M23240 8769 c-19 -10 -27 -19 -18 -19 8 0 26 9 39 20 30 24 24 24
-21 -1z"/>
<path d="M22968 8733 c6 -2 18 -2 25 0 6 3 1 5 -13 5 -14 0 -19 -2 -12 -5z"/>
<path d="M23030 8728 c0 -5 20 -8 44 -8 25 0 47 3 49 8 3 4 -17 7 -44 7 -27 0
-49 -3 -49 -7z"/>
<path d="M23158 8733 c6 -2 18 -2 25 0 6 3 1 5 -13 5 -14 0 -19 -2 -12 -5z"/>
<path d="M10705 8129 c-38 -84 -58 -205 -51 -304 7 -93 18 -138 53 -217 24
-54 28 -58 59 -58 19 0 34 2 34 4 0 2 -11 28 -24 57 -37 86 -50 157 -50 269 1
90 5 117 31 190 16 47 33 93 37 103 7 14 3 17 -27 17 -32 0 -36 -3 -62 -61z"/>
<path d="M11247 8133 c72 -163 69 -394 -7 -542 l-20 -41 35 0 c34 0 38 3 60
53 75 163 73 395 -5 546 -18 36 -25 41 -55 41 l-34 0 26 -57z"/>
<path d="M2420 7910 l0 -260 40 0 40 0 2 188 3 187 78 -112 c43 -62 82 -115
87 -118 5 -3 46 47 92 112 l83 118 3 -187 2 -188 40 0 40 0 0 260 0 260 -37 0
c-37 0 -39 -2 -126 -130 -49 -72 -90 -130 -91 -130 -2 0 -43 58 -92 130 -87
128 -90 130 -126 130 l-38 0 0 -260z"/>
<path d="M3620 7910 l0 -260 180 0 180 0 0 35 0 35 -140 0 -140 0 0 75 0 74
123 3 122 3 3 33 3 32 -125 0 -126 0 0 80 0 80 140 0 140 0 0 35 0 35 -180 0
-180 0 0 -260z"/>
<path d="M7902 8151 c-61 -21 -114 -67 -145 -126 -28 -53 -30 -174 -3 -225 25
-49 74 -98 120 -122 114 -59 287 -12 342 93 18 37 19 36 -17 43 -27 5 -36 1
-70 -33 -83 -87 -221 -78 -285 18 -32 48 -42 122 -25 174 45 135 210 169 311
65 34 -34 43 -39 70 -33 35 8 36 10 11 51 -39 65 -136 114 -220 114 -20 -1
-60 -9 -89 -19z"/>
<path d="M9230 8080 l0 -60 -36 0 c-34 0 -35 -1 -32 -32 3 -29 7 -33 36 -36
l32 -3 0 -102 c0 -153 33 -203 128 -194 52 6 63 15 56 45 -5 19 -13 22 -50 22
-56 0 -64 17 -64 141 l0 89 60 0 60 0 0 35 0 35 -60 0 -60 0 0 60 0 60 -35 0
-35 0 0 -60z"/>
<path d="M10390 8080 l0 -60 -36 0 c-34 0 -35 -1 -32 -32 3 -29 7 -33 36 -36
l32 -3 0 -102 c0 -153 33 -203 128 -194 52 6 63 15 56 45 -5 19 -13 22 -50 22
-56 0 -64 17 -64 141 l0 89 60 0 60 0 0 35 0 35 -60 0 -60 0 0 60 0 60 -35 0
-35 0 0 -60z"/>
<path d="M3065 7841 l84 -181 -34 -80 -34 -80 37 0 37 0 112 261 111 260 -40
-3 -40 -3 -53 -128 c-30 -71 -55 -131 -58 -133 -2 -2 -31 55 -64 128 l-60 133
-41 3 -41 3 84 -180z"/>
<path d="M4070 7835 l0 -185 35 0 35 0 0 94 c0 51 3 107 6 125 15 74 99 107
149 56 24 -23 25 -30 25 -150 l0 -125 35 0 35 0 0 98 c0 113 12 165 43 187 33
23 84 19 112 -10 24 -23 25 -30 25 -150 l0 -125 35 0 35 0 0 139 c0 127 -2
141 -23 172 -42 63 -154 75 -216 24 -28 -24 -29 -24 -46 -5 -40 45 -128 49
-178 10 -33 -26 -37 -25 -37 5 0 22 -4 25 -35 25 l-35 0 0 -185z"/>
<path d="M4843 8009 c-44 -13 -100 -70 -112 -116 -16 -57 -13 -92 10 -141 53
-108 209 -134 305 -50 39 35 40 49 1 59 -19 5 -30 2 -43 -12 -54 -60 -178 -41
-203 32 l-10 29 150 0 149 0 0 35 c0 122 -119 201 -247 164z m111 -63 c34 -14
66 -50 66 -73 0 -10 -28 -13 -114 -13 -107 0 -114 1 -109 19 6 24 52 68 78 74
35 8 45 7 79 -7z"/>
<path d="M5170 7835 l0 -185 35 0 35 0 0 93 c0 50 5 109 10 129 13 44 52 78
91 78 26 0 29 3 29 35 0 32 -2 35 -30 35 -19 0 -42 -11 -65 -31 l-35 -31 0 31
c0 29 -3 31 -35 31 l-35 0 0 -185z"/>
<path d="M5490 7998 c-109 -56 -132 -203 -44 -290 63 -63 160 -70 228 -17 l26
20 0 -41 c0 -78 -39 -119 -112 -120 -35 0 -54 6 -77 25 -22 19 -36 24 -55 19
-40 -10 -39 -19 3 -57 44 -40 87 -52 162 -45 56 6 93 28 127 78 21 32 22 42
22 241 l0 209 -35 0 c-30 0 -35 -3 -35 -24 l0 -23 -47 23 c-58 30 -106 30
-163 2z m182 -87 c22 -25 28 -41 28 -77 0 -39 -5 -51 -34 -80 -28 -28 -41 -34
-78 -34 -94 0 -151 84 -112 165 23 48 57 66 118 61 41 -3 55 -9 78 -35z"/>
<path d="M5983 8009 c-44 -13 -100 -70 -112 -116 -16 -57 -13 -92 10 -141 53
-108 209 -134 305 -50 39 35 40 49 1 59 -19 5 -30 2 -43 -12 -54 -60 -178 -41
-203 32 l-10 29 150 0 149 0 0 35 c0 122 -119 201 -247 164z m111 -63 c34 -14
66 -50 66 -73 0 -10 -28 -13 -114 -13 -107 0 -114 1 -109 19 6 24 52 68 78 74
35 8 45 7 79 -7z"/>
<path d="M6310 7835 l0 -185 35 0 35 0 0 100 c0 144 30 200 106 200 79 0 94
-30 94 -185 l0 -115 36 0 35 0 -3 144 c-3 128 -5 148 -24 173 -44 59 -136 67
-208 18 l-36 -24 0 29 c0 28 -3 30 -35 30 l-35 0 0 -185z"/>
<path d="M6845 8001 c-122 -56 -150 -197 -58 -292 78 -82 231 -73 289 16 15
23 15 28 3 36 -24 15 -50 10 -81 -16 -45 -38 -116 -35 -156 5 -80 80 -31 200
83 200 38 0 52 -5 76 -29 23 -24 34 -28 56 -22 40 11 39 28 -1 66 -59 56 -139
69 -211 36z"/>
<path d="M7205 7841 l84 -181 -34 -80 -34 -80 37 0 37 0 112 261 111 260 -40
-3 -40 -3 -53 -128 c-30 -71 -55 -131 -58 -133 -2 -2 -31 55 -64 128 l-60 133
-41 3 -41 3 84 -180z"/>
<path d="M8418 8011 c-146 -47 -174 -244 -46 -328 35 -24 52 -28 108 -28 56 0
73 4 108 28 108 71 109 232 3 303 -43 28 -126 40 -173 25z m148 -95 c29 -29
34 -41 34 -81 0 -40 -5 -52 -34 -81 -30 -30 -40 -34 -86 -34 -46 0 -56 4 -86
34 -29 29 -34 41 -34 81 0 40 5 52 34 81 30 30 40 34 86 34 46 0 56 -4 86 -34z"/>
<path d="M8750 7835 l0 -185 35 0 35 0 0 100 c0 144 30 200 106 200 79 0 94
-30 94 -185 l0 -115 36 0 35 0 -3 144 c-3 128 -5 148 -24 173 -44 59 -136 67
-208 18 l-36 -24 0 29 c0 28 -3 30 -35 30 l-35 0 0 -185z"/>
<path d="M9583 8009 c-64 -19 -123 -106 -123 -179 0 -12 5 -40 11 -61 33 -107
184 -154 269 -83 l30 26 0 -31 c0 -29 3 -31 35 -31 l35 0 0 185 0 185 -35 0
c-31 0 -35 -3 -35 -25 l0 -24 -33 19 c-41 24 -110 33 -154 19z m153 -93 c29
-29 34 -41 34 -81 0 -40 -5 -52 -34 -81 -30 -30 -40 -34 -84 -34 -43 0 -55 5
-80 30 -79 79 -30 200 82 200 41 0 53 -5 82 -34z"/>
<path d="M10035 8001 c-122 -56 -150 -197 -58 -292 78 -82 231 -73 289 16 15
23 15 28 3 36 -24 15 -50 10 -81 -16 -45 -38 -116 -35 -156 5 -80 80 -31 200
83 200 38 0 52 -5 76 -29 23 -24 34 -28 56 -22 40 11 39 28 -1 66 -59 56 -139
69 -211 36z"/>
<path d="M10923 8001 c-46 -21 -63 -45 -63 -89 0 -42 34 -67 132 -96 47 -15
89 -33 92 -41 9 -23 -3 -42 -35 -55 -39 -16 -91 -5 -122 26 -21 21 -32 25 -57
19 -39 -9 -38 -20 5 -61 56 -52 134 -67 202 -39 52 22 72 42 79 81 11 62 -20
88 -161 131 -43 13 -61 23 -64 37 -4 25 24 46 61 46 30 0 84 -23 90 -38 1 -5
18 -5 35 0 30 8 32 10 20 29 -35 58 -143 84 -214 50z"/>
<path d="M11458 7985 c-9 -21 -8 -28 7 -45 23 -25 47 -26 68 -2 32 35 14 72
-35 72 -21 0 -32 -7 -40 -25z"/>
<path d="M11472 7734 c-27 -18 -28 -45 -4 -67 24 -22 45 -21 65 1 22 24 21 38
-3 62 -24 24 -29 24 -58 4z"/>
<path d="M575 6766 c-31 -9 -60 -26 -77 -45 -50 -56 -38 -128 56 -336 38 -85
43 -120 22 -147 -20 -27 -80 -48 -133 -48 -45 0 -291 23 -396 36 l-47 7 0
-312 c0 -360 -12 -332 115 -275 197 87 255 100 316 68 53 -27 74 -90 74 -219
0 -91 -4 -118 -22 -157 -46 -100 -119 -104 -308 -16 -66 30 -132 58 -148 62
l-27 6 0 -320 c0 -267 2 -320 14 -320 8 0 78 7 156 15 185 19 330 21 367 3 40
-19 43 -71 8 -140 -15 -29 -36 -78 -47 -108 -11 -30 -25 -60 -30 -67 -6 -7
-12 -39 -15 -73 -5 -53 -3 -64 20 -98 42 -64 81 -77 227 -77 100 0 134 4 165
18 50 23 95 84 95 129 0 40 -33 134 -89 248 -72 150 -54 180 111 180 51 0 168
-7 261 -17 157 -16 167 -18 167 -37 0 -12 -7 -75 -14 -141 -24 -202 -29 -325
-16 -374 12 -45 49 -92 72 -90 7 0 4 5 -8 10 -11 6 -29 25 -40 42 -17 28 -19
49 -17 162 2 72 12 195 23 275 11 80 29 208 40 285 28 197 35 368 18 425 -26
85 -63 85 -253 -3 -179 -83 -253 -77 -298 21 -18 39 -21 67 -22 157 0 95 3
116 24 158 51 104 122 103 366 -7 88 -39 120 -44 152 -21 36 25 46 77 40 199
-6 103 -34 377 -42 402 -2 8 -32 7 -102 -2 -174 -22 -387 -37 -427 -30 -46 9
-96 54 -96 87 0 13 27 83 60 156 93 203 91 272 -8 315 -60 27 -214 34 -287 14z"/>
<path d="M22635 6343 c-16 -2 -86 -10 -154 -19 -69 -8 -127 -17 -131 -19 -4
-2 -1 -47 6 -99 27 -214 37 -403 24 -450 -27 -98 -74 -103 -245 -26 -98 44
-132 55 -187 58 -65 4 -69 3 -97 -27 -39 -42 -55 -120 -48 -234 7 -108 28
-155 80 -180 50 -25 103 -13 257 58 151 70 195 72 228 11 22 -40 21 -219 -1
-396 -9 -69 -19 -154 -22 -190 -3 -36 -13 -126 -22 -200 -21 -173 -23 -346 -4
-380 18 -33 30 -40 66 -40 30 0 122 36 113 45 -2 3 -22 -4 -43 -15 -46 -23
-98 -26 -114 -6 -7 8 -17 41 -23 73 -9 48 -7 97 11 268 13 114 25 213 27 219
3 8 42 7 141 -6 209 -26 354 -33 397 -18 41 13 81 48 91 80 7 24 -12 117 -26
126 -5 3 -9 14 -9 24 0 10 -4 20 -10 22 -15 5 -80 170 -80 205 0 84 48 115
192 121 72 3 109 0 146 -12 69 -23 87 -46 86 -110 -1 -49 -12 -78 -89 -251
-13 -27 -26 -60 -30 -73 -11 -36 12 -85 52 -112 41 -28 107 -32 283 -17 52 5
102 9 110 9 8 0 39 4 68 9 l52 10 0 760 c0 600 -3 759 -12 759 -7 0 -71 7
-143 15 -257 29 -359 17 -385 -45 -14 -34 -12 -44 51 -187 90 -204 84 -273
-25 -318 -53 -22 -219 -22 -287 0 -110 37 -114 109 -20 317 34 74 61 144 61
157 0 69 -50 92 -197 90 -59 -1 -121 -4 -138 -6z"/>
<path d="M2420 4300 l0 -260 40 0 40 0 2 186 3 187 140 -187 c131 -174 142
-186 173 -186 l32 0 0 260 0 260 -40 0 -40 0 -2 -187 -3 -187 -140 187 c-131
176 -142 187 -172 187 l-33 0 0 -260z"/>
<path d="M3410 4470 l0 -60 -36 0 c-34 0 -35 -1 -32 -32 3 -29 7 -33 36 -36
l32 -3 0 -102 c0 -153 33 -203 128 -194 52 6 63 15 56 45 -5 19 -13 22 -50 22
-56 0 -64 17 -64 141 l0 89 60 0 60 0 0 35 0 35 -60 0 -60 0 0 60 0 60 -35 0
-35 0 0 -60z"/>
<path d="M0 4337 c0 -107 3 -156 10 -152 13 8 12 276 -1 296 -5 9 -9 -48 -9
-144z"/>
<path d="M3048 4401 c-146 -47 -174 -244 -46 -328 35 -24 52 -28 108 -28 56 0
73 4 108 28 108 71 109 232 3 303 -43 28 -126 40 -173 25z m148 -95 c29 -29
34 -41 34 -81 0 -40 -5 -52 -34 -81 -30 -30 -40 -34 -86 -34 -46 0 -56 4 -86
34 -29 29 -34 41 -34 81 0 40 5 52 34 81 30 30 40 34 86 34 46 0 56 -4 86 -34z"/>
<path d="M3753 4399 c-44 -13 -100 -70 -112 -116 -16 -57 -13 -92 10 -141 53
-108 209 -134 305 -50 39 35 40 49 1 59 -19 5 -30 2 -43 -12 -54 -60 -178 -41
-203 32 l-10 29 150 0 149 0 0 35 c0 122 -119 201 -247 164z m111 -63 c34 -14
66 -50 66 -73 0 -10 -28 -13 -114 -13 -107 0 -114 1 -109 19 6 24 52 68 78 74
35 8 45 7 79 -7z"/>
<path d="M4133 4391 c-46 -21 -63 -45 -63 -89 0 -42 34 -67 132 -96 47 -15 89
-33 92 -41 9 -23 -3 -42 -35 -55 -39 -16 -91 -5 -122 26 -21 21 -32 25 -57 19
-39 -9 -38 -20 5 -61 56 -52 134 -67 202 -39 52 22 72 42 79 81 11 62 -20 88
-161 131 -43 13 -61 23 -64 37 -4 25 24 46 61 46 30 0 84 -23 90 -38 1 -5 18
-5 35 0 30 8 32 10 20 29 -35 58 -143 84 -214 50z"/>
<path d="M4458 4375 c-9 -21 -8 -28 7 -45 23 -25 47 -26 68 -2 32 35 14 72
-35 72 -21 0 -32 -7 -40 -25z"/>
<path d="M22665 4336 c-33 -12 -169 -80 -145 -72 8 3 53 21 100 40 53 22 102
36 129 36 38 0 49 -5 81 -39 23 -24 41 -56 49 -84 14 -58 14 -190 0 -242 -14
-52 -53 -103 -84 -111 -14 -3 -25 -11 -25 -16 0 -20 66 29 95 71 30 42 30 44
30 174 0 107 -3 138 -17 162 -24 41 -50 70 -75 84 -27 14 -98 13 -138 -3z"/>
<path d="M23322 4314 l-37 -37 39 33 c36 30 43 32 98 28 32 -2 53 -1 46 4 -7
4 -34 8 -61 8 -41 0 -52 -5 -85 -36z"/>
<path d="M23490 4326 c0 -2 7 -7 16 -10 8 -3 12 -2 9 4 -6 10 -25 14 -25 6z"/>
<path d="M23570 4290 c8 -5 20 -10 25 -10 6 0 3 5 -5 10 -8 5 -19 10 -25 10
-5 0 -3 -5 5 -10z"/>
<path d="M23649 4255 c23 -14 46 -25 50 -25 10 1 -73 50 -84 50 -5 0 10 -11
34 -25z"/>
<path d="M1750 4227 c-36 -13 -74 -29 -85 -36 -23 -15 -29 -16 85 25 73 27 94
29 138 13 40 -14 62 -68 72 -184 l9 -90 -4 90 c-5 114 -20 162 -60 186 -39 25
-76 24 -155 -4z"/>
<path d="M23258 4187 c-3 -19 -2 -25 4 -19 6 6 8 18 6 28 -3 14 -5 12 -10 -9z"/>
<path d="M1628 4174 c-4 -3 -32 -16 -65 -30 -32 -13 -51 -24 -42 -24 21 0 106
37 114 50 7 11 2 13 -7 4z"/>
<path d="M4472 4124 c-27 -18 -28 -45 -4 -67 24 -22 45 -21 65 1 22 24 21 38
-3 62 -24 24 -29 24 -58 4z"/>
<path d="M1478 4113 c7 -3 16 -2 19 1 4 3 -2 6 -13 5 -11 0 -14 -3 -6 -6z"/>
<path d="M23256 4005 c8 -37 14 -45 14 -19 0 10 -5 26 -10 34 -8 11 -9 7 -4
-15z"/>
<path d="M22343 3962 c-37 -23 -52 -135 -34 -242 6 -33 8 -14 7 70 -1 95 2
120 17 143 25 38 74 36 164 -7 97 -47 208 -86 241 -85 15 0 -5 8 -44 19 -39
10 -116 39 -171 64 -95 44 -152 56 -180 38z"/>
<path d="M23690 3950 c-8 -5 -10 -10 -5 -10 6 0 17 5 25 10 8 5 11 10 5 10 -5
0 -17 -5 -25 -10z"/>
<path d="M1951 3933 c-1 -13 -8 -40 -17 -62 -30 -76 -105 -78 -264 -6 -120 54
-170 68 -70 20 227 -110 319 -111 349 -2 7 25 11 51 8 59 -3 7 -6 3 -6 -9z"/>
<path d="M1449 3921 c-58 -29 -74 -62 -75 -154 -2 -119 30 -456 42 -444 3 3
-2 65 -10 138 -42 377 -31 443 77 459 33 4 37 7 20 12 -13 3 -36 -1 -54 -11z"/>
<path d="M23287 3915 c12 -21 63 -73 63 -63 0 3 -17 23 -37 44 -20 21 -32 30
-26 19z"/>
<path d="M23585 3901 c-22 -11 -37 -20 -34 -20 10 -1 79 29 79 34 0 7 0 7 -45
-14z"/>
<path d="M2 3705 c0 -93 3 -159 7 -145 11 41 13 263 2 290 -7 18 -10 -22 -9
-145z"/>
<path d="M598 3833 c6 -2 18 -2 25 0 6 3 1 5 -13 5 -14 0 -19 -2 -12 -5z"/>
<path d="M773 3833 c9 -2 25 -2 35 0 9 3 1 5 -18 5 -19 0 -27 -2 -17 -5z"/>
<path d="M558 3823 c7 -3 16 -2 19 1 4 3 -2 6 -13 5 -11 0 -14 -3 -6 -6z"/>
<path d="M875 3808 c11 -6 27 -16 35 -22 9 -6 5 -1 -8 12 -13 12 -28 22 -35
22 -7 0 -3 -6 8 -12z"/>
<path d="M489 3783 l-24 -28 28 24 c25 23 32 31 24 31 -2 0 -14 -12 -28 -27z"/>
<path d="M953 3695 c0 -22 2 -30 4 -17 2 12 2 30 0 40 -3 9 -5 -1 -4 -23z"/>
<path d="M22315 3638 c5 -23 21 -173 30 -283 3 -33 9 -91 14 -130 25 -186 34
-374 21 -419 -27 -98 -74 -103 -245 -26 -97 43 -133 55 -187 58 -64 4 -69 3
-96 -25 -67 -67 -71 -315 -6 -392 46 -55 117 -46 304 39 131 60 167 63 204 20
14 -17 28 -49 31 -75 7 -45 -7 -241 -29 -418 -7 -54 -9 -100 -5 -103 31 -19
469 -52 533 -40 85 16 98 77 40 196 -58 121 -84 197 -84 249 0 93 68 131 231
131 117 0 164 -13 207 -56 33 -33 35 -37 29 -94 -3 -42 -21 -96 -61 -185 -63
-143 -69 -180 -30 -216 22 -20 38 -24 105 -28 70 -3 225 8 362 26 l47 6 0 753
c0 415 -3 754 -7 755 -5 0 -44 5 -88 10 -44 5 -147 12 -230 15 -139 5 -152 4
-183 -15 -62 -40 -64 -85 -6 -209 19 -41 34 -82 34 -92 0 -10 5 -20 10 -22 6
-2 17 -31 25 -66 13 -55 13 -65 -1 -95 -21 -44 -53 -62 -140 -77 -62 -11 -101
-10 -156 5 -5 2 -22 3 -39 4 -21 1 -42 12 -66 36 -32 32 -34 38 -29 83 3 27 8
57 12 68 13 35 67 149 74 154 4 3 10 16 13 30 3 14 11 44 17 67 17 58 1 95
-49 118 -33 14 -61 16 -182 12 -79 -2 -195 -12 -258 -21 -87 -13 -116 -14
-122 -5 -4 7 -13 72 -20 146 -7 73 -16 133 -21 133 -5 0 -6 -10 -3 -22z"/>
<path d="M466 3607 c3 -10 9 -15 12 -12 3 3 0 11 -7 18 -10 9 -11 8 -5 -6z"/>
<path d="M917 3571 c-4 -17 -3 -21 5 -13 5 5 8 16 6 23 -3 8 -7 3 -11 -10z"/>
<path d="M496 3530 c9 -34 66 -151 71 -147 2 2 -15 42 -37 88 -23 46 -38 73
-34 59z"/>
<path d="M892 3511 c-6 -17 -9 -31 -6 -31 7 0 25 52 20 57 -2 2 -8 -10 -14
-26z"/>
<path d="M824 3356 c-3 -19 -2 -41 3 -49 5 -10 8 1 9 34 1 58 -3 62 -12 15z"/>
<path d="M573 3335 c0 -22 2 -30 4 -17 2 12 2 30 0 40 -3 9 -5 -1 -4 -23z"/>
<path d="M1400 3300 c-12 -8 -11 -10 8 -10 12 0 22 5 22 10 0 13 -11 13 -30 0z"/>
<path d="M1330 3290 c-23 -7 -23 -8 -3 -9 12 -1 25 4 28 9 3 6 5 10 3 9 -2 -1
-14 -5 -28 -9z"/>
<path d="M58 3283 c12 -2 30 -2 40 0 9 3 -1 5 -23 4 -22 0 -30 -2 -17 -4z"/>
<path d="M535 3275 c-16 -8 -23 -14 -14 -15 8 0 24 7 35 15 23 18 18 18 -21 0z"/>
<path d="M148 3273 c12 -2 32 -2 45 0 12 2 2 4 -23 4 -25 0 -35 -2 -22 -4z"/>
<path d="M857 3270 c9 -9 43 -15 105 -16 l93 -2 -85 7 c-47 4 -94 11 -105 16
-16 6 -18 6 -8 -5z"/>
<path d="M1218 3273 c12 -2 30 -2 40 0 9 3 -1 5 -23 4 -22 0 -30 -2 -17 -4z"/>
<path d="M253 3263 c15 -2 39 -2 55 0 15 2 2 4 -28 4 -30 0 -43 -2 -27 -4z"/>
<path d="M1098 3263 c18 -2 45 -2 60 0 15 2 0 4 -33 4 -33 0 -45 -2 -27 -4z"/>
<path d="M388 3253 c23 -2 59 -2 80 0 20 2 1 4 -43 4 -44 0 -61 -2 -37 -4z"/>
<path d="M445 1840 c3 -5 8 -10 11 -10 2 0 4 5 4 10 0 6 -5 10 -11 10 -5 0 -7
-4 -4 -10z"/>
<path d="M308 1833 c18 -2 45 -2 60 0 15 2 0 4 -33 4 -33 0 -45 -2 -27 -4z"/>
<path d="M488 1833 c6 -2 18 -2 25 0 6 3 1 5 -13 5 -14 0 -19 -2 -12 -5z"/>
<path d="M893 1833 c9 -2 25 -2 35 0 9 3 1 5 -18 5 -19 0 -27 -2 -17 -5z"/>
<path d="M1048 1833 c17 -2 47 -2 65 0 17 2 3 4 -33 4 -36 0 -50 -2 -32 -4z"/>
<path d="M188 1823 c12 -2 30 -2 40 0 9 3 -1 5 -23 4 -22 0 -30 -2 -17 -4z"/>
<path d="M548 1814 c15 -10 22 -26 24 -52 l1 -37 4 33 c4 34 -17 72 -41 72 -6
0 0 -7 12 -16z"/>
<path d="M836 1811 c-11 -12 -16 -30 -13 -48 4 -28 4 -28 6 4 0 20 9 37 23 47
12 9 18 16 12 16 -6 0 -19 -9 -28 -19z"/>
<path d="M1178 1823 c12 -2 32 -2 45 0 12 2 2 4 -23 4 -25 0 -35 -2 -22 -4z"/>
<path d="M93 1813 c9 -2 23 -2 30 0 6 3 -1 5 -18 5 -16 0 -22 -2 -12 -5z"/>
<path d="M1273 1813 c9 -2 25 -2 35 0 9 3 1 5 -18 5 -19 0 -27 -2 -17 -5z"/>
<path d="M18 1803 c6 -2 18 -2 25 0 6 3 1 5 -13 5 -14 0 -19 -2 -12 -5z"/>
<path d="M1330 1806 c0 -2 15 -6 34 -8 19 -2 32 0 30 4 -5 8 -64 12 -64 4z"/>
<path d="M1402 1698 c-23 -214 -34 -365 -29 -408 7 -55 24 -97 44 -104 9 -4 7
3 -6 20 -11 14 -23 46 -27 70 -9 59 14 333 41 497 2 15 1 27 -4 27 -4 0 -13
-46 -19 -102z"/>
<path d="M831 1720 c0 -8 4 -22 9 -30 12 -18 12 -2 0 25 -6 13 -9 15 -9 5z"/>
<path d="M545 1679 c-4 -6 -5 -12 -2 -15 2 -3 7 2 10 11 7 17 1 20 -8 4z"/>
<path d="M860 1650 c6 -11 13 -20 16 -20 2 0 0 9 -6 20 -6 11 -13 20 -16 20
-2 0 0 -9 6 -20z"/>
<path d="M511 1609 c-14 -42 -7 -49 9 -9 7 17 10 33 8 36 -3 3 -11 -9 -17 -27z"/>
<path d="M881 1615 c0 -5 6 -21 14 -35 8 -14 14 -20 14 -15 0 6 -6 21 -14 35
-8 14 -14 21 -14 15z"/>
<path d="M486 1545 c-9 -26 -7 -32 5 -12 6 10 9 21 6 23 -2 3 -7 -2 -11 -11z"/>
<path d="M2 1380 c-1 -119 2 -158 9 -140 11 27 9 225 -2 275 -4 17 -7 -44 -7
-135z"/>
<path d="M460 1489 c0 -5 5 -7 10 -4 6 3 10 8 10 11 0 2 -4 4 -10 4 -5 0 -10
-5 -10 -11z"/>
<path d="M452 1435 c0 -16 2 -22 5 -12 2 9 2 23 0 30 -3 6 -5 -1 -5 -18z"/>
<path d="M952 1440 c0 -14 2 -19 5 -12 2 6 2 18 0 25 -3 6 -5 1 -5 -13z"/>
<path d="M952 1385 c0 -16 2 -22 5 -12 2 9 2 23 0 30 -3 6 -5 -1 -5 -18z"/>
<path d="M452 1380 c0 -14 2 -19 5 -12 2 6 2 18 0 25 -3 6 -5 1 -5 -13z"/>
<path d="M23341 1354 c-26 -19 -51 -72 -50 -106 0 -13 6 -1 14 27 18 68 46 89
110 82 28 -3 59 -8 70 -12 18 -6 19 -6 2 5 -33 21 -119 24 -146 4z"/>
<path d="M460 1340 c0 -5 5 -10 11 -10 5 0 7 5 4 10 -3 6 -8 10 -11 10 -2 0
-4 -4 -4 -10z"/>
<path d="M910 1315 c-13 -14 -41 -30 -62 -37 -21 -6 -36 -13 -33 -16 10 -10
91 30 108 53 23 32 17 32 -13 0z"/>
<path d="M18540 1070 l0 -270 35 0 35 0 0 93 c0 50 5 109 10 129 13 46 52 78
96 78 79 0 94 -29 94 -185 l0 -115 36 0 35 0 -3 144 c-3 128 -5 148 -24 173
-44 59 -136 67 -208 18 l-36 -24 0 114 0 115 -35 0 -35 0 0 -270z"/>
<path d="M19590 1070 l0 -270 35 0 35 0 0 270 0 270 -35 0 -35 0 0 -270z"/>
<path d="M20060 1224 l0 -116 -30 25 c-16 14 -47 28 -69 32 -136 23 -247 -118
-198 -252 39 -105 184 -146 267 -77 l30 26 0 -31 c0 -29 3 -31 35 -31 l35 0 0
270 0 270 -35 0 -35 0 0 -116z m-34 -158 c29 -29 34 -41 34 -81 0 -40 -5 -52
-34 -81 -29 -29 -41 -34 -81 -34 -58 0 -99 27 -115 75 -16 47 -4 93 32 127 25
23 39 28 80 28 44 0 54 -4 84 -34z"/>
<path d="M20710 1224 l0 -116 -30 25 c-16 14 -47 28 -69 32 -136 23 -247 -118
-198 -252 39 -105 184 -146 267 -77 l30 26 0 -31 c0 -29 3 -31 35 -31 l35 0 0
270 0 270 -35 0 -35 0 0 -116z m-34 -158 c29 -29 34 -41 34 -81 0 -40 -5 -52
-34 -81 -29 -29 -41 -34 -81 -34 -58 0 -99 27 -115 75 -16 47 -4 93 32 127 25
23 39 28 80 28 44 0 54 -4 84 -34z"/>
<path d="M18167 1306 c-89 -33 -127 -107 -92 -176 19 -36 52 -54 172 -92 100
-31 133 -54 133 -91 0 -65 -121 -100 -197 -58 -21 12 -47 35 -58 51 -16 23
-25 28 -45 23 -43 -10 -46 -21 -14 -65 72 -102 242 -129 334 -52 43 37 63 80
56 122 -9 59 -47 87 -170 128 -61 20 -119 43 -128 52 -46 40 2 102 79 102 49
0 75 -11 115 -47 21 -20 32 -24 57 -18 38 8 38 15 5 55 -55 65 -169 95 -247
66z"/>
<path d="M18986 1304 c-21 -20 -20 -37 2 -57 33 -30 72 -15 72 28 0 42 -44 59
-74 29z"/>
<path d="M20246 1304 c-21 -20 -20 -37 2 -57 33 -30 72 -15 72 28 0 42 -44 59
-74 29z"/>
<path d="M490 1305 c0 -7 61 -37 66 -33 2 3 -12 12 -31 21 -19 9 -35 15 -35
12z"/>
<path d="M23580 1300 c8 -5 20 -10 25 -10 6 0 3 5 -5 10 -8 5 -19 10 -25 10
-5 0 -3 -5 5 -10z"/>
<path d="M1775 1286 c-53 -18 -214 -95 -197 -96 7 0 41 14 75 31 81 41 162 69
201 69 74 0 101 -55 101 -210 0 -245 -63 -270 -345 -137 -36 17 -88 32 -116
35 -47 4 -52 2 -81 -32 -40 -45 -47 -92 -36 -240 l8 -116 -686 0 -686 0 4 138
c3 81 1 147 -6 162 -7 18 -10 -110 -10 -432 l-1 -458 11865 0 11865 0 0 295 0
295 -11167 2 -11168 3 -8 114 c-11 140 -4 191 30 232 25 29 30 31 77 27 31 -3
84 -21 136 -46 162 -77 257 -89 298 -37 44 56 54 260 17 352 -25 62 -81 78
-170 49z"/>
<path d="M23620 1284 c0 -7 52 -25 57 -20 2 2 -10 8 -26 14 -17 6 -31 9 -31 6z"/>
<path d="M578 1263 c7 -3 16 -2 19 1 4 3 -2 6 -13 5 -11 0 -14 -3 -6 -6z"/>
<path d="M642 1254 c4 -3 32 -5 63 -5 31 0 59 2 63 5 3 3 -25 6 -63 6 -38 0
-66 -3 -63 -6z"/>
<path d="M23283 1150 c0 -36 2 -50 4 -32 2 17 2 47 0 65 -2 17 -4 3 -4 -33z"/>
<path d="M1510 1179 c-19 -4 -44 -6 -55 -3 -18 4 -18 4 -3 -6 18 -11 70 -6 97
10 19 11 8 11 -39 -1z"/>
<path d="M18980 985 l0 -185 35 0 35 0 0 185 0 185 -35 0 -35 0 0 -185z"/>
<path d="M19263 1159 c-44 -13 -100 -70 -112 -116 -16 -57 -13 -92 10 -141 53
-108 209 -134 305 -50 39 35 40 49 1 59 -19 5 -30 2 -43 -12 -54 -60 -178 -41
-203 32 l-10 29 150 0 149 0 0 35 c0 122 -119 201 -247 164z m111 -63 c34 -14
66 -50 66 -73 0 -10 -28 -13 -114 -13 -107 0 -114 1 -109 19 6 24 52 68 78 74
35 8 45 7 79 -7z"/>
<path d="M20240 985 l0 -185 35 0 35 0 0 185 0 185 -35 0 -35 0 0 -185z"/>
<path d="M21052 1023 c3 -136 5 -151 26 -180 42 -59 151 -68 212 -16 l30 25 0
-26 c0 -23 4 -26 35 -26 l35 0 0 185 0 185 -34 0 -34 0 -4 -125 c-3 -119 -4
-126 -29 -151 -16 -16 -41 -28 -67 -31 -36 -5 -45 -2 -72 25 l-30 30 0 126 0
126 -36 0 -35 0 3 -147z"/>
<path d="M21553 1151 c-46 -21 -63 -45 -63 -89 0 -42 34 -67 132 -96 47 -15
89 -33 92 -41 9 -23 -3 -42 -35 -55 -39 -16 -91 -5 -122 26 -21 21 -32 25 -57
19 -39 -9 -38 -20 5 -61 56 -52 134 -67 202 -39 52 22 72 42 79 81 11 62 -20
88 -161 131 -43 13 -61 23 -64 37 -4 25 24 46 61 46 30 0 84 -23 90 -38 1 -5
18 -5 35 0 30 8 32 10 20 29 -35 58 -143 84 -214 50z"/>
<path d="M23292 1050 c0 -19 2 -27 5 -17 2 9 2 25 0 35 -3 9 -5 1 -5 -18z"/>
<path d="M23670 1025 c-33 -19 -21 -19 21 0 19 8 27 14 19 14 -8 0 -26 -6 -40
-14z"/>
<path d="M23300 1005 c0 -5 5 -17 10 -25 5 -8 10 -10 10 -5 0 6 -5 17 -10 25
-5 8 -10 11 -10 5z"/>
<path d="M23510 955 c-19 -7 -28 -14 -20 -14 8 0 29 6 45 14 39 17 21 18 -25
0z"/>
<path d="M23325 949 c6 -9 75 -33 80 -27 2 2 -16 11 -40 19 -25 9 -42 13 -40
8z"/>
<path d="M23426 931 c-3 -4 6 -6 19 -3 14 2 25 6 25 8 0 8 -39 4 -44 -5z"/>
<path d="M20892 884 c-12 -8 -22 -23 -22 -33 0 -21 30 -51 52 -51 19 0 48 32
48 53 0 14 -35 47 -50 47 -3 0 -16 -7 -28 -16z"/>
</g>
</svg>
